<?xml version="1.0" standalone="no"?>
<!DOCTYPE svg PUBLIC "-//W3C//DTD SVG 20010904//EN"
 "http://www.w3.org/TR/2001/REC-SVG-20010904/DTD/svg10.dtd">
<svg version="1.0" xmlns="http://www.w3.org/2000/svg"
 width="200.000000pt" height="200.000000pt" viewBox="0 0 200.000000 200.000000"
 preserveAspectRatio="xMidYMid meet">

<g transform="translate(0.000000,200.000000) scale(0.100000,-0.100000)"
fill="#000000" stroke="none">
<path d="M844 1986 c-342 -66 -589 -247 -736 -541 -260 -521 -24 -1146 516
-1370 121 -50 229 -70 376 -70 195 1 359 45 519 141 341 205 534 626 466 1015
-58 335 -281 625 -578 751 -173 74 -405 104 -563 74z m786 -986 l0 -630 -630
0 -630 0 0 630 0 630 630 0 630 0 0 -630z"/>
<path d="M460 1000 l0 -540 540 0 540 0 0 540 0 540 -540 0 -540 0 0 -540z
m701 13 c50 -153 94 -284 97 -291 3 -10 -9 -12 -54 -10 l-58 3 -21 70 -21 70
-105 3 -104 2 -23 -75 -22 -75 -56 0 c-41 0 -55 3 -52 13 3 6 47 137 97 290
l93 277 68 0 68 0 93 -277z"/>
<path d="M962 1078 c-18 -57 -32 -109 -32 -115 0 -9 21 -13 70 -13 39 0 70 4
70 8 0 15 -62 207 -69 215 -4 4 -22 -39 -39 -95z"/>
</g>
</svg>
